<?xml version="1.0" encoding="iso-8859-1"?>
<!DOCTYPE svg PUBLIC "-//W3C//DTD SVG 1.1//EN" "http://www.w3.org/Graphics/SVG/1.1/DTD/svg11.dtd">
<svg version="1.1"
xmlns="http://www.w3.org/2000/svg" 
xmlns:xlink="http://www.w3.org/1999/xlink" x="0px" y="0px"
aria-label="Orcid" role="img"
viewBox="0 0 512 512"
style="enable-background:new 0 0 512 512;"
xml:space="preserve"
fill="none"
>
<rect
width="512" height="512"
rx="15%" />
<circle cx="256" cy="256" r="256" fill="#a6ce39"/><path d="m173 372h-31v-214h31zm45-214h83c79 0 114 57 114 107 0 55-43 107-114 107h-84zm31 187h49c70 0 86-53 86-79 0-43-27-79-87-79h-47zm-71-231c0 11-9 20-20 20s-20-9-20-20a20 20 0 0 1 20-20c11 0 20 9 20 20z" fill="#fff"/>
</svg>